<?xml version="1.0" encoding="utf-8"?>
<!-- Generator: Adobe Illustrator 27.5.0, SVG Export Plug-In . SVG Version: 6.00 Build 0)  -->
<svg version="1.1" xmlns="http://www.w3.org/2000/svg" xmlns:xlink="http://www.w3.org/1999/xlink" x="0px" y="0px"
	 viewBox="0 0 500 500" style="enable-background:new 0 0 500 500;" xml:space="preserve">
<g id="BACKGROUND">
	<rect style="fill:#FFFFFF;" width="500" height="500"/>
</g>
<g id="OBJECTS">
	<g>
		<g>
			<g>
				<path style="fill:#92E8D0;" d="M178.491,184.618c1.612-2.514,3.909-4.935,6.878-5.258c3.516-0.382,6.723,2.415,8.133,5.658
					c2.338,5.38,0.813,11.908-2.808,16.523c-2.627,3.349-6.214,5.8-10.054,7.563c-1.395,0.641-3.463,2.025-4.818,0.921
					c-1.013-0.825-1.259-3.942-1.453-5.143C173.247,197.932,174.684,190.558,178.491,184.618z"/>
				<path style="fill:#92E8D0;" d="M134.771,234.697c-3.09,3.629-4.769,9.217-2.029,13.118c2.399,3.415,7.46,4.156,11.293,2.506
					c3.833-1.65,6.567-5.165,8.452-8.889c0.883-1.745,1.584-3.607,2.599-5.283c0.767-1.266,3.591-4.866,3.94-6.143
					c0,0-4.07-2.112-6.544-2.316C145.943,227.149,139.064,229.655,134.771,234.697z"/>
				
					<path style="fill:none;stroke:#78BFAB;stroke-width:2.9936;stroke-linecap:round;stroke-linejoin:round;stroke-miterlimit:10;" d="
					M145.361,232.96c12.211-5.006,25.329-3.88,36.26,3.516c-4.823-6.354-7.198-14.519-6.535-22.469
					c0.663-7.949,4.356-15.609,10.165-21.077"/>
				<path style="fill:#B840BD;" d="M215.498,243.134c3.946,8.422,2.34,21.412-3.393,26.745c-1.321,1.229-4.224,3.319-5.173,7.087
					c0,0-0.372,1.48-0.587,6.803l0,0c-2.377-1.573-5.977-3.463-10.569-3.962c-3.207-0.348-5.258,0.16-6.831,0.314
					c-7.575,0.74-17.635-5.379-21.59-13.477c-6.244-12.786-0.528-28.414,12.766-34.906
					C193.758,225.079,210.313,232.066,215.498,243.134z"/>
			</g>
			
				<polygon style="fill:none;stroke:#78BFAB;stroke-width:4.4903;stroke-linecap:round;stroke-linejoin:round;stroke-miterlimit:10;" points="
				216.046,296.275 161.371,296.275 152.807,251.701 236.295,251.701 			"/>
			<path style="fill:#78BFAB;" d="M173.228,307.583c0-2.85-2.31-5.16-5.16-5.16c-2.85,0-5.16,2.31-5.16,5.16
				c0,2.85,2.31,5.16,5.16,5.16C170.918,312.743,173.228,310.433,173.228,307.583z"/>
			<circle style="fill:#78BFAB;" cx="210.222" cy="307.583" r="5.16"/>
			
				<line style="fill:none;stroke:#78BFAB;stroke-width:2.9936;stroke-linecap:round;stroke-linejoin:round;stroke-miterlimit:10;" x1="114.821" y1="269.486" x2="148.525" y2="269.486"/>
			
				<line style="fill:none;stroke:#78BFAB;stroke-width:2.9936;stroke-linecap:round;stroke-linejoin:round;stroke-miterlimit:10;" x1="126.897" y1="278.343" x2="148.525" y2="278.343"/>
			
				<line style="fill:none;stroke:#78BFAB;stroke-width:2.9936;stroke-linecap:round;stroke-linejoin:round;stroke-miterlimit:10;" x1="138.672" y1="287.199" x2="148.525" y2="287.199"/>
			
				<polyline style="fill:none;stroke:#78BFAB;stroke-width:4.4903;stroke-linecap:round;stroke-linejoin:round;stroke-miterlimit:10;" points="
				120.383,242.039 139.706,242.039 152.807,251.701 			"/>
			<path style="fill:#E351E8;" d="M198.996,239.09c-0.545,2.419-2.948,3.938-5.368,3.393c-2.419-0.545-3.938-2.948-3.393-5.368
				c0.545-2.419,2.948-3.939,5.368-3.393S199.541,236.67,198.996,239.09z"/>
		</g>
	</g>
	<g>
		<g>
			
				<text transform="matrix(1 0 0 1 247.9741 268.0488)" style="fill:#78BFAB; font-family:'VarelaRound-Regular'; font-size:36.7641px;">SUPER</text>
		</g>
		<g>
			
				<text transform="matrix(0.8832 0 0 1 233.3408 301.4212)" style="fill:#B840BD; font-family:'VarelaRound-Regular'; font-size:36.5322px;">MARKET</text>
		</g>
	</g>
</g>
</svg>
